<?xml version="1.0" standalone="no"?>
<!DOCTYPE svg PUBLIC "-//W3C//DTD SVG 20010904//EN"
 "http://www.w3.org/TR/2001/REC-SVG-20010904/DTD/svg10.dtd">
<svg version="1.0" xmlns="http://www.w3.org/2000/svg"
 width="922.000000pt" height="145.000000pt" viewBox="0 0 922.000000 145.000000"
 preserveAspectRatio="xMidYMid meet">

<g transform="translate(0.000000,145.000000) scale(0.100000,-0.100000)"
fill="#000000" stroke="none">
<path d="M1106 1440 c-212 -24 -404 -79 -584 -165 -242 -116 -396 -245 -468
-390 -38 -77 -39 -82 -39 -185 0 -99 2 -110 32 -170 58 -117 147 -201 314
-297 173 -99 404 -174 645 -209 150 -23 542 -25 684 -5 352 49 623 189 710
365 33 66 47 143 36 201 -7 34 -68 115 -87 115 -5 0 -9 -17 -9 -37 -1 -168
-269 -324 -618 -362 -268 -29 -551 1 -706 74 -166 78 -240 267 -190 485 48
212 227 322 549 337 231 10 459 -30 632 -112 122 -57 171 -92 276 -194 l87
-85 0 307 c0 169 -2 307 -4 307 -2 0 -60 -32 -128 -70 l-125 -70 -64 29 c-100
45 -251 90 -378 112 -133 23 -437 33 -565 19z"/>
<path d="M3725 1049 c-164 -19 -368 -83 -495 -156 -99 -58 -202 -164 -229
-238 -100 -267 160 -523 619 -610 120 -22 334 -30 463 -16 339 37 622 177 715
355 23 44 27 63 27 136 0 112 -30 174 -129 268 -222 210 -573 304 -971 261z
m330 -218 c65 -29 108 -71 137 -135 19 -43 22 -68 23 -161 0 -103 -2 -114 -30
-170 -53 -106 -158 -153 -316 -142 -133 9 -214 60 -260 162 -19 40 -23 69 -23
145 -1 183 65 283 211 320 64 16 202 6 258 -19z"/>
<path d="M8270 1054 c-14 -2 -59 -9 -100 -15 -263 -39 -509 -188 -588 -357
-24 -50 -27 -69 -27 -157 0 -90 3 -105 28 -153 88 -168 300 -283 612 -334 120
-19 477 -16 591 5 271 51 424 154 424 284 0 63 -13 71 -53 36 -106 -93 -332
-142 -602 -130 -187 9 -275 36 -348 105 -32 32 -67 106 -67 144 0 4 239 8 531
8 l531 0 -7 38 c-12 65 -67 183 -114 246 -91 120 -240 213 -411 256 -82 20
-334 36 -400 24z m325 -198 c76 -32 125 -100 125 -173 l0 -23 -285 0 c-317 0
-300 -4 -270 68 28 66 90 115 175 139 59 17 203 11 255 -11z"/>
<path d="M5720 1019 c-162 -4 -330 -9 -373 -11 l-78 -3 185 -120 186 -120 0
-227 0 -226 -185 -119 -184 -118 339 -3 c187 -1 494 -1 682 0 l343 3 -217 120
-218 120 0 106 c0 124 22 210 70 273 87 114 246 152 322 76 37 -38 38 -100 3
-169 l-24 -49 86 -12 c166 -24 314 1 382 63 32 29 61 94 61 137 0 161 -157
273 -405 287 -200 11 -354 -60 -472 -220 l-43 -59 0 141 0 141 -82 -2 c-46 0
-216 -5 -378 -9z"/>
</g>
</svg>
